<?xml version="1.0" encoding="UTF-8" standalone="no"?>
<svg
   xmlns:dc="http://purl.org/dc/elements/1.1/"
   xmlns:cc="http://creativecommons.org/ns#"
   xmlns:rdf="http://www.w3.org/1999/02/22-rdf-syntax-ns#"
   xmlns:svg="http://www.w3.org/2000/svg"
   xmlns="http://www.w3.org/2000/svg"
   xmlns:sodipodi="http://sodipodi.sourceforge.net/DTD/sodipodi-0.dtd"
   xmlns:inkscape="http://www.inkscape.org/namespaces/inkscape"
   width="210mm"
   height="297mm"
   viewBox="0 0 210 297"
   version="1.1"
   id="svg8"
   inkscape:version="1.0.2-2 (e86c870879, 2021-01-15)"
   sodipodi:docname="logos.svg">
  <defs
     id="defs2" />
  <sodipodi:namedview
     id="base"
     pagecolor="#ffffff"
     bordercolor="#666666"
     borderopacity="1.0"
     inkscape:pageopacity="0.0"
     inkscape:pageshadow="2"
     inkscape:zoom="1.4"
     inkscape:cx="322.78614"
     inkscape:cy="630.30052"
     inkscape:document-units="mm"
     inkscape:current-layer="layer1"
     showgrid="false"
     inkscape:window-width="1920"
     inkscape:window-height="1017"
     inkscape:window-x="-8"
     inkscape:window-y="-8"
     inkscape:window-maximized="1"
     inkscape:document-rotation="0" />
  <metadata
     id="metadata5">
    <rdf:RDF>
      <cc:Work
         rdf:about="">
        <dc:format>image/svg+xml</dc:format>
        <dc:type
           rdf:resource="http://purl.org/dc/dcmitype/StillImage" />
        <dc:title />
      </cc:Work>
    </rdf:RDF>
  </metadata>
  <g
     inkscape:label="Layer 1"
     inkscape:groupmode="layer"
     id="layer1">
    <path
       id="path815"
       d="m 61.454815,92.330225 c 0.35042,-0.350584 0.102241,-0.949844 -0.393295,-0.949844 h -7.328314 c -0.495536,0 -0.743715,0.59926 -0.393295,0.949844 l 3.529761,3.529596 v 3.172086 h -0.92346 c -0.364272,0 -0.659615,0.295341 -0.659615,0.659615 0,0.07289 0.05904,0.131922 0.131923,0.131922 h 3.957686 c 0.07289,0 0.131923,-0.05903 0.131923,-0.131922 0,-0.364274 -0.295342,-0.659615 -0.659615,-0.659615 h -0.92346 v -3.172086 z m -0.961057,-0.158307 -0.791538,0.791537 h -4.609549 l -0.791537,-0.791537 z"
       inkscape:connector-curvature="0"
       style="stroke-width:0.01649036" />
    <text
       xml:space="preserve"
       style="font-style:normal;font-variant:normal;font-weight:normal;font-stretch:normal;font-size:10.5833px;line-height:0.8;font-family:SimSun;-inkscape-font-specification:SimSun;letter-spacing:0px;word-spacing:0px;fill:#000000;fill-opacity:1;stroke:none;stroke-width:0.264583"
       x="62.675266"
       y="99.464218"
       id="text828"><tspan
         sodipodi:role="line"
         x="62.675266"
         y="99.464218"
         style="font-style:normal;font-variant:normal;font-weight:normal;font-stretch:normal;line-height:0.8;font-family:'Microsoft Himalaya';-inkscape-font-specification:'Microsoft Himalaya';stroke-width:0.264583"
         id="tspan836">IMPRACTICAL BAR</tspan></text>
    <text
       xml:space="preserve"
       style="font-style:normal;font-weight:normal;font-size:3.52778px;line-height:1.25;font-family:sans-serif;letter-spacing:0px;word-spacing:0px;fill:#000000;fill-opacity:1;stroke:none;stroke-width:0.264583"
       x="62.624798"
       y="93.938042"
       id="text844"><tspan
         sodipodi:role="line"
         id="tspan842"
         x="62.624798"
         y="93.938042"
         style="font-size:3.52778px;stroke-width:0.264583">the</tspan></text>
    <path
       id="path815-4"
       d="m 60.26582,112.84816 c 0.35042,-0.35059 0.102241,-0.94985 -0.393295,-0.94985 h -7.328314 c -0.495536,0 -0.743715,0.59926 -0.393295,0.94985 l 3.529761,3.52959 v 3.17209 h -0.92346 c -0.364272,0 -0.659615,0.29534 -0.659615,0.65961 0,0.0729 0.05904,0.13192 0.131923,0.13192 h 3.957686 c 0.07289,0 0.131923,-0.059 0.131923,-0.13192 0,-0.36427 -0.295342,-0.65961 -0.659615,-0.65961 h -0.92346 v -3.17209 z m -0.961057,-0.15831 -0.791538,0.79154 h -4.609549 l -0.791537,-0.79154 z"
       inkscape:connector-curvature="0"
       style="stroke-width:0.01649036" />
    <text
       xml:space="preserve"
       style="font-style:normal;font-variant:normal;font-weight:normal;font-stretch:normal;font-size:10.5833px;line-height:0.8;font-family:SimSun;-inkscape-font-specification:SimSun;letter-spacing:0px;word-spacing:0px;fill:#000000;fill-opacity:1;stroke:none;stroke-width:0.264583"
       x="61.486271"
       y="119.98215"
       id="text828-6"><tspan
         sodipodi:role="line"
         x="61.486271"
         y="119.98215"
         style="font-style:normal;font-variant:normal;font-weight:normal;font-stretch:normal;line-height:0.8;font-family:'Microsoft Himalaya';-inkscape-font-specification:'Microsoft Himalaya';stroke-width:0.264583"
         id="tspan836-6">Impractical Bar</tspan></text>
    <text
       xml:space="preserve"
       style="font-style:normal;font-weight:normal;font-size:3.52778px;line-height:1.25;font-family:sans-serif;letter-spacing:0px;word-spacing:0px;fill:#000000;fill-opacity:1;stroke:none;stroke-width:0.264583"
       x="61.435802"
       y="114.45596"
       id="text844-6"><tspan
         sodipodi:role="line"
         id="tspan842-9"
         x="61.435802"
         y="114.45596"
         style="font-size:3.52778px;stroke-width:0.264583">the</tspan></text>
    <path
       id="path815-4-7"
       d="m 60.907614,132.30925 c 0.59446,-0.59474 0.173444,-1.61134 -0.667194,-1.61134 H 47.808506 c -0.840638,0 -1.261654,1.0166 -0.667194,1.61134 l 5.987965,5.98767 v 5.38121 h -1.566579 c -0.617958,0 -1.118985,0.50101 -1.118985,1.11897 0,0.12374 0.100153,0.22379 0.223798,0.22379 h 6.713904 c 0.12365,0 0.223798,-0.10012 0.223798,-0.22379 0,-0.61796 -0.501026,-1.11897 -1.118985,-1.11897 h -1.566579 v -5.38121 z m -1.630359,-0.26856 -1.342782,1.34279 h -7.81974 l -1.34278,-1.34279 z"
       inkscape:connector-curvature="0"
       style="stroke-width:0.02797461;fill:#333333" />
    <text
       xml:space="preserve"
       style="font-style:normal;font-variant:normal;font-weight:normal;font-stretch:normal;font-size:12.4001px;line-height:0.8;font-family:SimSun;-inkscape-font-specification:SimSun;letter-spacing:0px;word-spacing:0px;fill:#333333;fill-opacity:1;stroke:none;stroke-width:0.310004"
       x="61.627907"
       y="144.88432"
       id="text828-6-3"><tspan
         sodipodi:role="line"
         x="61.627907"
         y="144.88432"
         style="font-style:normal;font-variant:normal;font-weight:normal;font-stretch:normal;line-height:0.8;font-family:Roboto;-inkscape-font-specification:Roboto;fill:#333333;stroke-width:0.310004"
         id="tspan836-6-3">IMPRACTICAL BAR</tspan></text>
    <text
       xml:space="preserve"
       style="font-style:normal;font-weight:normal;font-size:3.52778px;line-height:1.25;font-family:sans-serif;letter-spacing:0px;word-spacing:0px;fill:#999999;fill-opacity:1;stroke:none;stroke-width:0.264583"
       x="61.924595"
       y="133.13269"
       id="text844-6-5"><tspan
         sodipodi:role="line"
         id="tspan842-9-8"
         x="61.924595"
         y="133.13269"
         style="font-size:2.11667px;fill:#999999;stroke-width:0.264583">the</tspan></text>
    <path
       id="path815-8"
       d="m 62.671245,73.693168 c 0.35042,-0.350584 0.102241,-0.949844 -0.393295,-0.949844 h -7.328314 c -0.495536,0 -0.743715,0.59926 -0.393295,0.949844 l 3.529761,3.529596 v 3.172086 h -0.92346 c -0.364272,0 -0.659615,0.295341 -0.659615,0.659615 0,0.07289 0.05904,0.131922 0.131923,0.131922 h 3.957686 c 0.07289,0 0.131923,-0.05903 0.131923,-0.131922 0,-0.364274 -0.295342,-0.659615 -0.659615,-0.659615 h -0.92346 v -3.172086 z m -0.961057,-0.158307 -0.791538,0.791537 h -4.609549 l -0.791537,-0.791537 z"
       inkscape:connector-curvature="0"
       style="stroke-width:0.01649036" />
    <text
       xml:space="preserve"
       style="font-style:normal;font-variant:normal;font-weight:normal;font-stretch:normal;font-size:12.1899px;line-height:0.8;font-family:SimSun;-inkscape-font-specification:SimSun;letter-spacing:0px;word-spacing:0px;fill:#000000;fill-opacity:1;stroke:none;stroke-width:0.304748"
       x="73.41655"
       y="70.192894"
       id="text828-9"
       transform="scale(0.86820358,1.1518036)"><tspan
         sodipodi:role="line"
         x="73.41655"
         y="70.192894"
         style="font-style:normal;font-variant:normal;font-weight:normal;font-stretch:normal;line-height:0.8;font-family:'Microsoft Himalaya';-inkscape-font-specification:'Microsoft Himalaya';stroke-width:0.304748"
         id="tspan836-7">IMPRACTICAL BAR</tspan></text>
    <text
       xml:space="preserve"
       style="font-style:normal;font-weight:normal;font-size:1.79779px;line-height:1.25;font-family:sans-serif;letter-spacing:0px;word-spacing:0px;fill:#000000;fill-opacity:1;stroke:none;stroke-width:0.134834"
       x="63.906185"
       y="73.993317"
       id="text844-1"><tspan
         sodipodi:role="line"
         id="tspan842-6"
         x="63.906185"
         y="73.993317"
         style="font-size:1.79779px;stroke-width:0.134834">the</tspan></text>
    <path
       id="path815-9"
       d="m 26.449591,164.55505 c 0.35042,-0.4286 0.102241,-1.16123 -0.393295,-1.16123 h -7.328314 c -0.495536,0 -0.743715,0.73263 -0.393295,1.16123 l 3.529761,4.31511 v 3.87802 h -0.92346 c -0.364272,0 -0.659615,0.36107 -0.659615,0.80642 0,0.0891 0.05904,0.16128 0.131923,0.16128 h 3.957686 c 0.07289,0 0.131923,-0.0721 0.131923,-0.16128 0,-0.44535 -0.295342,-0.80642 -0.659615,-0.80642 h -0.92346 v -3.87802 z m -0.961057,-0.19354 -0.791538,0.9677 h -4.609549 l -0.791537,-0.9677 z"
       inkscape:connector-curvature="0"
       style="stroke-width:0.0182332" />
    <text
       xml:space="preserve"
       style="font-style:normal;font-variant:normal;font-weight:normal;font-stretch:normal;font-size:11.8249px;line-height:0.8;font-family:SimSun;-inkscape-font-specification:SimSun;letter-spacing:0px;word-spacing:0px;fill:#000000;fill-opacity:1;stroke:none;stroke-width:0.295623"
       x="27.48065"
       y="173.43857"
       id="text828-2"><tspan
         sodipodi:role="line"
         x="27.48065"
         y="173.43857"
         style="font-style:normal;font-variant:normal;font-weight:normal;font-stretch:normal;line-height:0.8;font-family:Suranna;-inkscape-font-specification:Suranna;stroke-width:0.295623"
         id="tspan836-0">IMPRACTICAL BAR</tspan></text>
    <text
       xml:space="preserve"
       style="font-style:normal;font-weight:normal;font-size:2.86851px;line-height:1.25;font-family:sans-serif;letter-spacing:0px;word-spacing:0px;fill:#000000;fill-opacity:1;stroke:none;stroke-width:0.215138"
       x="22.88835"
       y="203.28824"
       id="text844-2"
       transform="scale(1.2298284,0.81312159)"><tspan
         sodipodi:role="line"
         id="tspan842-3"
         x="22.88835"
         y="203.28824"
         style="font-style:normal;font-variant:normal;font-weight:normal;font-stretch:normal;font-size:2.86851px;font-family:Impact;-inkscape-font-specification:Impact;fill:#000000;stroke-width:0.215138">THE</tspan></text>
    <path
       id="path815-9-7"
       d="m 33.182101,193.11148 c 0.35042,-0.4286 0.102241,-1.16123 -0.393295,-1.16123 h -7.328314 c -0.495536,0 -0.743715,0.73263 -0.393295,1.16123 l 3.529761,4.31511 v 3.87802 h -0.92346 c -0.364272,0 -0.659615,0.36107 -0.659615,0.80642 0,0.0891 0.05904,0.16128 0.131923,0.16128 h 3.957686 c 0.07289,0 0.131923,-0.0721 0.131923,-0.16128 0,-0.44535 -0.295342,-0.80642 -0.659615,-0.80642 h -0.92346 v -3.87802 z m -0.961057,-0.19354 -0.791538,0.9677 h -4.609549 l -0.791537,-0.9677 z"
       inkscape:connector-curvature="0"
       style="stroke-width:0.0182332" />
    <text
       xml:space="preserve"
       style="font-style:normal;font-variant:normal;font-weight:normal;font-stretch:normal;font-size:11.8249px;line-height:0.8;font-family:SimSun;-inkscape-font-specification:SimSun;letter-spacing:0px;word-spacing:0px;fill:#000000;fill-opacity:1;stroke:none;stroke-width:0.295623"
       x="34.213161"
       y="201.995"
       id="text828-2-7"><tspan
         sodipodi:role="line"
         x="34.213161"
         y="201.995"
         style="font-style:normal;font-variant:normal;font-weight:normal;font-stretch:normal;line-height:0.8;font-family:Suranna;-inkscape-font-specification:Suranna;stroke-width:0.295623"
         id="tspan836-0-8">IMPRACTICAL BAR</tspan></text>
    <text
       xml:space="preserve"
       style="font-style:normal;font-weight:normal;font-size:2.86851px;line-height:1.25;font-family:sans-serif;letter-spacing:0px;word-spacing:0px;fill:#000000;fill-opacity:1;stroke:none;stroke-width:0.215138"
       x="28.3627"
       y="238.40775"
       id="text844-2-0"
       transform="scale(1.2298284,0.81312158)"><tspan
         sodipodi:role="line"
         id="tspan842-3-7"
         x="28.3627"
         y="238.40775"
         style="font-style:normal;font-variant:normal;font-weight:normal;font-stretch:normal;font-size:2.86851px;font-family:Suranna;-inkscape-font-specification:Suranna;fill:#000000;stroke-width:0.215138">THE</tspan></text>
  </g>
</svg>
