<?xml version="1.0" encoding="UTF-8" standalone="no"?>
<svg
   xmlns:dc="http://purl.org/dc/elements/1.1/"
   xmlns:cc="http://creativecommons.org/ns#"
   xmlns:rdf="http://www.w3.org/1999/02/22-rdf-syntax-ns#"
   xmlns:svg="http://www.w3.org/2000/svg"
   xmlns="http://www.w3.org/2000/svg"
   xmlns:sodipodi="http://sodipodi.sourceforge.net/DTD/sodipodi-0.dtd"
   xmlns:inkscape="http://www.inkscape.org/namespaces/inkscape"
   width="101.46824mm"
   height="10.32206mm"
   viewBox="0 0 101.46824 10.32206"
   version="1.1"
   id="svg912"
   inkscape:version="1.0.2-2 (e86c870879, 2021-01-15)"
   sodipodi:docname="logo.svg">
  <defs
     id="defs906" />
  <sodipodi:namedview
     id="base"
     pagecolor="#ffffff"
     bordercolor="#666666"
     borderopacity="1.0"
     inkscape:pageopacity="0.0"
     inkscape:pageshadow="2"
     inkscape:zoom="1.4"
     inkscape:cx="294.69069"
     inkscape:cy="19.965769"
     inkscape:document-units="mm"
     inkscape:current-layer="text828-2"
     inkscape:document-rotation="0"
     showgrid="false"
     fit-margin-top="0"
     fit-margin-left="0"
     fit-margin-right="0"
     fit-margin-bottom="0"
     inkscape:window-width="1920"
     inkscape:window-height="1017"
     inkscape:window-x="-8"
     inkscape:window-y="-8"
     inkscape:window-maximized="1" />
  <metadata
     id="metadata909">
    <rdf:RDF>
      <cc:Work
         rdf:about="">
        <dc:format>image/svg+xml</dc:format>
        <dc:type
           rdf:resource="http://purl.org/dc/dcmitype/StillImage" />
        <dc:title />
      </cc:Work>
    </rdf:RDF>
  </metadata>
  <g
     inkscape:label="Layer 1"
     inkscape:groupmode="layer"
     id="layer1"
     transform="translate(-55.099213,-143.00564)">
    <path
       id="path815-9"
       d="m 63.378157,144.16687 c 0.35042,-0.4286 0.102241,-1.16123 -0.393295,-1.16123 h -7.328314 c -0.495536,0 -0.743715,0.73263 -0.393295,1.16123 l 3.529761,4.31511 V 152.36 h -0.92346 c -0.364272,0 -0.659615,0.36107 -0.659615,0.80642 0,0.0891 0.05904,0.16128 0.131923,0.16128 h 3.957686 c 0.07289,0 0.131923,-0.0721 0.131923,-0.16128 0,-0.44535 -0.295342,-0.80642 -0.659615,-0.80642 h -0.92346 v -3.87802 z m -0.961057,-0.19354 -0.791538,0.9677 h -4.609549 l -0.791537,-0.9677 z"
       inkscape:connector-curvature="0"
       style="stroke-width:0.0182332" />
    <g
       aria-label="IMPRACTICAL BAR"
       id="text828-2"
       style="font-style:normal;font-variant:normal;font-weight:normal;font-stretch:normal;font-size:11.8249px;line-height:0.8;font-family:SimSun;-inkscape-font-specification:SimSun;letter-spacing:0px;word-spacing:0px;fill:#000000;fill-opacity:1;stroke:none;stroke-width:0.295623">
      <path
         d="m 67.517044,152.8533 v 0.19708 h -2.743983 v -0.19708 l 0.848967,-0.13644 v -6.8069 l -0.848967,-0.13644 v -0.19708 h 2.743983 v 0.19708 l -0.864127,0.13644 v 6.8069 z"
         style="font-style:normal;font-variant:normal;font-weight:normal;font-stretch:normal;line-height:0.8;font-family:Suranna;-inkscape-font-specification:Suranna;stroke-width:0.295623"
         id="path835" />
      <path
         d="m 69.078531,152.4743 v -6.56434 l -0.864127,-0.13644 v -0.19708 h 2.076938 l 2.334659,6.00341 2.395301,-6.00341 h 1.895016 v 0.19708 l -0.864128,0.13644 v 6.8069 l 0.864128,0.13644 v 0.19708 h -2.759144 v -0.19708 l 0.864128,-0.13644 v -6.53401 l -2.759144,6.9585 h -0.166761 l -2.789464,-7.23139 v 6.56434 l 0.909608,0.379 v 0.19708 h -2.001137 v -0.19708 z"
         style="font-style:normal;font-variant:normal;font-weight:normal;font-stretch:normal;line-height:0.8;font-family:Suranna;-inkscape-font-specification:Suranna;stroke-width:0.295623"
         id="path837" />
      <path
         d="m 80.539571,150.1548 h -1.046049 v 2.56206 l 0.864128,0.13644 v 0.19708 h -2.743983 v -0.19708 l 0.848967,-0.13644 v -6.8069 l -0.848967,-0.13644 v -0.19708 h 2.925904 q 2.728823,0 2.728823,2.28918 0,2.28918 -2.728823,2.28918 z M 80.41829,145.819 h -0.924768 v 4.1084 h 0.924768 q 1.713095,0 1.713095,-1.8647 v -0.379 q 0,-1.8647 -1.713095,-1.8647 z"
         style="font-style:normal;font-variant:normal;font-weight:normal;font-stretch:normal;line-height:0.8;font-family:Suranna;-inkscape-font-specification:Suranna;stroke-width:0.295623"
         id="path839" />
      <path
         d="m 90.378488,152.3985 0.151602,0.16676 q -0.500285,0.57609 -1.10669,0.57609 -0.606405,0 -0.879287,-0.24257 -0.257722,-0.25772 -0.333523,-0.86412 l -0.181921,-1.25829 q -0.197082,-1.34926 -1.500853,-1.34926 H 85.80013 v 3.28975 l 0.864127,0.13644 v 0.19708 h -2.743983 v -0.19708 l 0.848967,-0.13644 v -6.8069 l -0.848967,-0.13644 v -0.19708 h 2.607542 q 1.516013,0 2.198218,0.48513 0.682206,0.46996 0.682206,1.44021 0,1.60697 -1.940496,1.86469 v 0.0606 q 1.470532,0.19709 1.713094,1.59182 l 0.106121,0.80348 q 0.0758,0.46997 0.166762,0.69737 0.10612,0.21224 0.348682,0.21224 0.257723,0 0.576085,-0.33352 z M 86.527816,145.819 H 85.80013 v 3.38071 h 1.046049 q 0.682205,0 1.061208,-0.40932 0.379004,-0.42448 0.379004,-1.24313 v -0.18192 q 0,-1.54634 -1.758575,-1.54634 z"
         style="font-style:normal;font-variant:normal;font-weight:normal;font-stretch:normal;line-height:0.8;font-family:Suranna;-inkscape-font-specification:Suranna;stroke-width:0.295623"
         id="path841" />
      <path
         d="m 92.091575,152.8533 v 0.19708 h -2.001137 v -0.19708 l 0.909608,-0.379 2.713663,-7.09494 h 0.136441 l 2.562061,7.3375 0.864128,0.13644 v 0.19708 h -2.743983 v -0.19708 l 0.758006,-0.12128 -0.803487,-2.21338 h -2.471101 l -0.758006,1.95566 z m 1.21281,-5.82149 -1.21281,3.28975 h 2.33466 z"
         style="font-style:normal;font-variant:normal;font-weight:normal;font-stretch:normal;line-height:0.8;font-family:Suranna;-inkscape-font-specification:Suranna;stroke-width:0.295623"
         id="path843" />
      <path
         d="m 103.15845,145.37936 h 0.19708 v 2.33466 h -0.19708 l -0.57608,-1.45537 q -0.71253,-0.65189 -1.66762,-0.65189 -0.939926,0 -1.561491,0.77317 -0.606405,0.77316 -0.606405,2.07694 v 1.71309 q 0,1.31893 0.576085,2.0921 0.591245,0.758 1.591811,0.758 0.48513,0 0.95509,-0.19708 0.46996,-0.21224 0.80349,-0.57608 l 0.5306,-1.50085 h 0.19708 v 2.3953 h -0.19708 l -0.66704,-0.46997 q -0.71253,0.57609 -1.54634,0.57609 -1.606971,0 -2.531738,-1.07637 -0.924768,-1.09153 -0.924768,-2.83495 0,-1.75857 0.939928,-2.8501 0.955088,-1.10669 2.486258,-1.10669 0.84897,0 1.57666,0.54576 z"
         style="font-style:normal;font-variant:normal;font-weight:normal;font-stretch:normal;line-height:0.8;font-family:Suranna;-inkscape-font-specification:Suranna;stroke-width:0.295623"
         id="path845" />
      <path
         d="m 109.96533,147.65338 -0.6822,-1.83438 h -1.5615 v 6.89786 l 0.86413,0.13644 v 0.19708 h -2.74398 v -0.19708 l 0.84897,-0.13644 V 145.819 h -1.53118 l -0.72768,1.83438 h -0.25773 v -2.07694 h 6.07922 v 2.07694 z"
         style="font-style:normal;font-variant:normal;font-weight:normal;font-stretch:normal;line-height:0.8;font-family:Suranna;-inkscape-font-specification:Suranna;stroke-width:0.295623"
         id="path847" />
      <path
         d="m 113.55828,152.8533 v 0.19708 h -2.74399 v -0.19708 l 0.84897,-0.13644 v -6.8069 l -0.84897,-0.13644 v -0.19708 h 2.74399 v 0.19708 l -0.86413,0.13644 v 6.8069 z"
         style="font-style:normal;font-variant:normal;font-weight:normal;font-stretch:normal;line-height:0.8;font-family:Suranna;-inkscape-font-specification:Suranna;stroke-width:0.295623"
         id="path849" />
      <path
         d="m 120.00132,145.37936 h 0.19709 v 2.33466 h -0.19709 l -0.57608,-1.45537 q -0.71253,-0.65189 -1.66762,-0.65189 -0.93992,0 -1.56149,0.77317 -0.6064,0.77316 -0.6064,2.07694 v 1.71309 q 0,1.31893 0.57608,2.0921 0.59125,0.758 1.59181,0.758 0.48513,0 0.95509,-0.19708 0.46997,-0.21224 0.80349,-0.57608 l 0.5306,-1.50085 h 0.19709 v 2.3953 h -0.19709 l -0.66704,-0.46997 q -0.71253,0.57609 -1.54633,0.57609 -1.60698,0 -2.53175,-1.07637 -0.92476,-1.09153 -0.92476,-2.83495 0,-1.75857 0.93992,-2.8501 0.95509,-1.10669 2.48627,-1.10669 0.84896,0 1.57665,0.54576 z"
         style="font-style:normal;font-variant:normal;font-weight:normal;font-stretch:normal;line-height:0.8;font-family:Suranna;-inkscape-font-specification:Suranna;stroke-width:0.295623"
         id="path851" />
      <path
         d="m 122.54821,152.8533 v 0.19708 h -2.00114 v -0.19708 l 0.90961,-0.379 2.71366,-7.09494 h 0.13644 l 2.56207,7.3375 0.86412,0.13644 v 0.19708 h -2.74398 v -0.19708 l 0.75801,-0.12128 -0.80349,-2.21338 h -2.4711 l -0.75801,1.95566 z m 1.21281,-5.82149 -1.21281,3.28975 h 2.33466 z"
         style="font-style:normal;font-variant:normal;font-weight:normal;font-stretch:normal;line-height:0.8;font-family:Suranna;-inkscape-font-specification:Suranna;stroke-width:0.295623"
         id="path853" />
      <path
         d="m 127.8694,145.57644 h 2.74398 v 0.19708 l -0.86412,0.13644 v 6.91302 h 2.78946 l 0.75801,-2.04661 h 0.25772 v 2.27401 h -5.68505 v -0.19708 l 0.84897,-0.13644 v -6.8069 l -0.84897,-0.13644 z"
         style="font-style:normal;font-variant:normal;font-weight:normal;font-stretch:normal;line-height:0.8;font-family:Suranna;-inkscape-font-specification:Suranna;stroke-width:0.295623"
         id="path855" />
      <path
         d="m 142.40792,151.03409 q 0,1.03089 -0.75801,1.53117 -0.74284,0.48512 -2.01629,0.48512 h -3.28975 v -0.19708 l 0.84897,-0.13644 v -6.8069 l -0.84897,-0.13644 v -0.19708 h 2.8501 q 1.4857,0 2.10726,0.42449 0.63673,0.40932 0.63673,1.31893 0,1.34925 -1.7131,1.71309 v 0.0606 q 2.18306,0.28804 2.18306,1.9405 z m -2.7743,-1.77374 h -1.40989 v 3.56263 h 1.40989 q 0.78832,0 1.22797,-0.4548 0.4548,-0.46997 0.4548,-1.33409 v -0.091 q 0,-0.84897 -0.43964,-1.25829 -0.43965,-0.42449 -1.24313,-0.42449 z m -0.43965,-3.44135 h -0.97024 v 3.19879 h 1.03088 q 0.74285,0 1.13701,-0.42448 0.40933,-0.42449 0.40933,-1.19765 v -0.0606 q 0.0152,-1.51602 -1.60698,-1.51602 z"
         style="font-style:normal;font-variant:normal;font-weight:normal;font-stretch:normal;line-height:0.8;font-family:Suranna;-inkscape-font-specification:Suranna;stroke-width:0.295623"
         id="path857" />
      <path
         d="m 144.63644,152.8533 v 0.19708 h -2.00113 v -0.19708 l 0.9096,-0.379 2.71367,-7.09494 h 0.13644 l 2.56206,7.3375 0.86413,0.13644 v 0.19708 h -2.74399 v -0.19708 l 0.75801,-0.12128 -0.80349,-2.21338 h -2.4711 l -0.758,1.95566 z m 1.21281,-5.82149 -1.21281,3.28975 h 2.33466 z"
         style="font-style:normal;font-variant:normal;font-weight:normal;font-stretch:normal;line-height:0.8;font-family:Suranna;-inkscape-font-specification:Suranna;stroke-width:0.295623"
         id="path859" />
      <path
         d="m 156.41585,152.3985 0.1516,0.16676 q -0.50028,0.57609 -1.10668,0.57609 -0.60641,0 -0.87929,-0.24257 -0.25772,-0.25772 -0.33352,-0.86412 l -0.18193,-1.25829 q -0.19708,-1.34926 -1.50085,-1.34926 h -0.72769 v 3.28975 l 0.86413,0.13644 v 0.19708 h -2.74398 v -0.19708 l 0.84897,-0.13644 v -6.8069 l -0.84897,-0.13644 v -0.19708 h 2.60754 q 1.51601,0 2.19822,0.48513 0.68221,0.46996 0.68221,1.44021 0,1.60697 -1.9405,1.86469 v 0.0606 q 1.47053,0.19709 1.71309,1.59182 l 0.10612,0.80348 q 0.0758,0.46997 0.16677,0.69737 0.10612,0.21224 0.34868,0.21224 0.25772,0 0.57608,-0.33352 z m -3.85067,-6.5795 h -0.72769 v 3.38071 h 1.04605 q 0.68221,0 1.06121,-0.40932 0.37901,-0.42448 0.37901,-1.24313 v -0.18192 q 0,-1.54634 -1.75858,-1.54634 z"
         style="font-style:normal;font-variant:normal;font-weight:normal;font-stretch:normal;line-height:0.8;font-family:Suranna;-inkscape-font-specification:Suranna;stroke-width:0.295623"
         id="path861" />
    </g>
    <g
       aria-label="THE"
       transform="scale(1.2298284,0.81312158)"
       id="text844-2"
       style="font-style:normal;font-weight:normal;font-size:2.86851px;line-height:1.25;font-family:sans-serif;letter-spacing:0px;word-spacing:0px;fill:#000000;fill-opacity:1;stroke:none;stroke-width:0.215138">
      <path
         d="m 54.22116,175.94664 v 0.45381 H 53.871 v 1.81383 h -0.589669 v -1.81383 h -0.348759 v -0.45381 z"
         style="font-style:normal;font-variant:normal;font-weight:normal;font-stretch:normal;font-size:2.86851px;font-family:Impact;-inkscape-font-specification:Impact;fill:#000000;stroke-width:0.215138"
         id="path864" />
      <path
         d="m 55.711441,175.94664 v 2.26764 h -0.58967 v -0.95244 h -0.17648 v 0.95244 h -0.58967 v -2.26764 h 0.58967 v 0.81097 h 0.17648 v -0.81097 z"
         style="font-style:normal;font-variant:normal;font-weight:normal;font-stretch:normal;font-size:2.86851px;font-family:Impact;-inkscape-font-specification:Impact;fill:#000000;stroke-width:0.215138"
         id="path866" />
      <path
         d="m 55.948149,175.94664 h 0.983249 v 0.45381 h -0.39358 v 0.43 h 0.368368 v 0.43139 h -0.368368 v 0.49863 h 0.432798 v 0.45381 h -1.022467 z"
         style="font-style:normal;font-variant:normal;font-weight:normal;font-stretch:normal;font-size:2.86851px;font-family:Impact;-inkscape-font-specification:Impact;fill:#000000;stroke-width:0.215138"
         id="path868" />
    </g>
  </g>
</svg>
